<?xml version="1.0" encoding="utf-8"?>
<!-- Generator: Adobe Illustrator 19.2.1, SVG Export Plug-In . SVG Version: 6.00 Build 0)  -->
<svg version="1.1" id="Layer_1" xmlns="http://www.w3.org/2000/svg" xmlns:xlink="http://www.w3.org/1999/xlink" x="0px" y="0px" viewBox="0 0 750 140" style="enable-background:new 0 0 750 140;" xml:space="preserve">
<style type="text/css">
	.st0{display:none;fill:#EDEDED;}
	.st1{display:none;}
	.st2{display:inline;fill:#C6C6C6;}
	.st3{display:inline;fill:#282828;}
	.st4{display:inline;fill:#CE4545;}
	.st5{display:inline;fill:#D83A3A;}
	.st6{display:inline;}
	<!-- .st7{fill:#282828;} -->
	.st7{fill:#FFF;}
</style>
<rect x="-808.8" y="-364.9" class="st0" width="1606.9" height="869.7"/>
<image style="display:none;overflow:visible;" width="212" height="35" xlink:href="56C7DE1ED57C464D.png"  transform="matrix(1 0 0 1 -788.3167 -345.8452)">
</image>
<g class="st1">
	<path class="st2" d="M-548.8-192.7l-6.4-35.6h5.6l4.5,27.7l4.5-27.7h5.6l-6.5,35.6H-548.8z"/>
	<path class="st2" d="M-530.5-192.7v-35.6h15.3v5.4h-9.9v9.7h7.2v5.4h-7.2v9.7h9.9v5.4H-530.5z"/>
	<path class="st2" d="M-503-192.2c-2.4,0-4.4-0.8-6-2.5c-1.7-1.7-2.5-3.7-2.5-6v-19.4c0-2.4,0.8-4.4,2.5-6c1.7-1.7,3.7-2.5,6-2.5
		c2.4,0,4.4,0.8,6,2.5c1.6,1.7,2.5,3.7,2.5,6v4.1h-5.6v-4.2c0-0.9-0.3-1.6-0.9-2.2c-0.6-0.6-1.3-0.9-2.2-0.9c-0.9,0-1.6,0.3-2.2,0.9
		c-0.6,0.6-0.9,1.3-0.9,2.2v19.5c0,0.9,0.3,1.6,0.9,2.2c0.6,0.6,1.3,0.9,2.2,0.9c0.9,0,1.6-0.3,2.2-0.9c0.6-0.6,0.9-1.3,0.9-2.2
		v-4.9h5.6v5c0,2.4-0.8,4.4-2.5,6C-498.7-193-500.7-192.2-503-192.2z"/>
	<path class="st2" d="M-485.1-222.8h-5.7v-5.4h16.8v5.4h-5.7v30.2h-5.4V-222.8z"/>
	<path class="st2" d="M-461.9-228.7c2.4,0,4.4,0.8,6,2.5c1.7,1.7,2.5,3.7,2.5,6v19.4c0,2.4-0.8,4.4-2.5,6c-1.7,1.7-3.7,2.5-6,2.5
		c-2.4,0-4.4-0.8-6-2.5c-1.6-1.7-2.5-3.7-2.5-6v-19.4c0-2.4,0.8-4.4,2.5-6C-466.2-227.9-464.2-228.7-461.9-228.7z M-458.9-220.3
		c0-0.9-0.3-1.6-0.9-2.2c-0.6-0.6-1.3-0.9-2.2-0.9c-0.9,0-1.6,0.3-2.2,0.9c-0.6,0.6-0.9,1.3-0.9,2.2v19.5c0,0.9,0.3,1.6,0.9,2.2
		c0.6,0.6,1.3,0.9,2.2,0.9c0.9,0,1.6-0.3,2.2-0.9c0.6-0.6,0.9-1.3,0.9-2.2V-220.3z"/>
	<path class="st2" d="M-440.1-228.2c3,0,5.2,0.8,6.6,2.5c1.2,1.4,1.8,3.4,1.8,6v5.2c0,2.5-1,4.6-2.9,6.4l4,15.5h-5.8l-3.3-13.4
		c-0.2,0-0.3,0-0.5,0h-3.1v13.4h-5.4v-35.6H-440.1z M-436.9-219.7c0-2.1-1-3.1-3.1-3.1h-3.2v11.4h3.2c0.9,0,1.6-0.3,2.2-0.9
		c0.6-0.6,0.9-1.3,0.9-2.2V-219.7z"/>
	<path class="st2" d="M-417.8-192.7h-5.4v-35.6h15.3v5.4h-9.9v9.7h7.2v5.4h-7.2V-192.7z"/>
	<path class="st2" d="M-395.7-228.2c3,0,5.2,0.8,6.6,2.5c1.2,1.4,1.8,3.4,1.8,6v5.2c0,2.5-1,4.6-2.9,6.4l4,15.5h-5.8l-3.3-13.4
		c-0.2,0-0.3,0-0.5,0h-3.1v13.4h-5.4v-35.6H-395.7z M-392.5-219.7c0-2.1-1-3.1-3.1-3.1h-3.2v11.4h3.2c0.9,0,1.6-0.3,2.2-0.9
		c0.6-0.6,0.9-1.3,0.9-2.2V-219.7z"/>
	<path class="st2" d="M-381.6-192.7v-35.6h15.3v5.4h-9.9v9.7h7.2v5.4h-7.2v9.7h9.9v5.4H-381.6z"/>
	<path class="st2" d="M-362.6-192.7v-35.6h15.3v5.4h-9.9v9.7h7.2v5.4h-7.2v9.7h9.9v5.4H-362.6z"/>
	<path class="st2" d="M-343.6-192.7v-35.6h8c2.1,0,4,0.6,5.7,1.7c1.5,0.9,2.5,2.4,3.1,4.4c0.3,1.1,0.5,2.3,0.5,3.8
		c0,2.4-0.6,4.3-1.9,5.7c-0.5,0.6-1.2,1.1-1.9,1.4c1.2,0.5,2.2,1.4,3,2.7c0.5,0.9,1,2.1,1.2,3.5c0.1,0.7,0.2,1.6,0.2,2.5
		c0,2.3-0.4,4.2-1.3,5.7c-0.7,1.2-1.6,2.2-2.8,3c-1.4,0.8-2.7,1.2-4.1,1.2H-343.6z M-337.9-213.7h2.2c1.7,0,2.8-0.8,3.4-2.4
		c0.2-0.6,0.3-1.4,0.3-2.2c0-1.5-0.4-2.6-1.1-3.4c-0.7-0.7-1.5-1.1-2.6-1.1h-2.2V-213.7z M-337.9-198h2.2c1.8,0,3.1-0.9,3.8-2.8
		c0.2-0.6,0.4-1.4,0.4-2.2c0-2-0.4-3.4-1.1-4.3c-0.7-0.8-1.7-1.2-3-1.2h-2.2V-198z"/>
	<path class="st2" d="M-315.5-192.7h-5.4v-35.6h5.4V-192.7z"/>
	<path class="st2" d="M-310.7-192.7v-35.6h15.3v5.4h-9.9v9.7h7.2v5.4h-7.2v9.7h9.9v5.4H-310.7z"/>
</g>
<rect x="-774.8" y="-72.9" style="fill:none;" width="690" height="291.2"/>
<text transform="matrix(1 0 0 1 -567.3289 -14.7236)" class="st1"><tspan x="0" y="0" class="st3" style="font-family:'BebasNeue'; font-size:82px;">VECTOR</tspan><tspan x="53.2" y="98.4" class="st3" style="font-family:'BebasNeue'; font-size:82px;">TEXT </tspan><tspan x="-22" y="196.8" class="st3" style="font-family:'BebasNeue'; font-size:82px;">DIVIDERS</tspan></text>
<rect x="-238.9" y="-330.3" style="fill:none;" width="179.2" height="72.2"/>
<text transform="matrix(1 0 0 1 -215.4568 -284.1436)" style="display:none;fill:#282828; font-family:'BebasNeue'; font-size:65px;">#696</text>
<rect x="-817.2" y="448.1" style="fill:none;" width="769.1" height="63"/>
<text transform="matrix(1 0 0 1 -764.9377 476.4888)" class="st1"><tspan x="0" y="0" class="st3" style="font-family:'BebasNeue'; font-size:40px;">Go to</tspan><tspan x="91.5" y="0" class="st6" style="font-family:'BebasNeue'; font-size:40px;"> </tspan><tspan x="100" y="0" class="st4" style="font-family:'BebasNeue'; font-size:40px;">pixel77.com </tspan><tspan x="311.1" y="0" class="st3" style="font-family:'BebasNeue'; font-size:40px;">and subscribe to </tspan><tspan x="595.4" y="0" class="st5" style="font-family:'BebasNeue'; font-size:40px;">RSS.</tspan></text>
<rect x="-788.3" y="402.9" style="fill:none;" width="690" height="284"/>
<text transform="matrix(1 0 0 1 -634.7043 418.6929)" class="st1" style="font-family:'ArialMT'; font-size:22px;">Be the first to download future freebies!</text>
<g class="st1">
	<path class="st3" d="M672.7-67.6c-25.9-4-44,18.8-67.9,22.7c-10.2,1.7-22.7,0.7-29.7-7.9c-1.1-1.4-2-2.9-2.6-4.4
		c5.6-3.5,9-8.7,6.8-16.4c4.1-0.9,8.5,1.2,9.8,6.1c0.1,0.3,1.2,0,1.2-0.3c-1.3-6.4-6.3-7.9-11.2-6.6c-0.2-0.6-0.5-1.3-0.8-2
		c-3.4-7.9-13.2-8.4-20.1-5.1c-6,2.8-12.4,10-4,14.4c0.7,0.4,3.1-0.8,2.7-1c-10.7-6,6.6-19.6,14.9-9.1c1.2,1.6,2.1,3.2,2.6,4.9
		c-3.7,2.3-6.6,6.1-6.8,10.1c-0.1,2,0.1,3.7,0.5,5.4c-0.4,0.2-0.7,0.4-1.1,0.6c-7.5,3.5-17.1,3.4-25.5,2.8c1.3-1.6,2.4-3.5,2.9-5.6
		c0.1-0.4-0.8-0.2-0.9,0.1c-0.8,2.2-2.2,3.9-3.9,5.4c-0.4,0-0.9-0.1-1.3-0.1c-10.2-0.9-18.3-3.7-27.4-8.4
		c-26.5-13.5-53.6-38.2-85.2-36.6c-3.1,0.2-6.1,0.7-8.9,1.7c-2.5-0.4-5.1-0.5-7.7-0.4c-6.2,0.3-17.3,2.6-20.5,8.9
		c-3.2-6.3-14.3-8.6-20.5-8.9c-2.6-0.1-5.1,0-7.7,0.4c-2.8-0.9-5.8-1.5-8.9-1.7c-31.6-1.6-58.7,23.1-85.2,36.6
		c-9.1,4.7-17.2,7.5-27.4,8.4c-0.4,0-0.9,0.1-1.3,0.1c-1.7-1.5-3.1-3.2-3.9-5.4c-0.1-0.3-1-0.5-0.9-0.1c0.5,2.1,1.6,4,2.9,5.6
		c-8.4,0.6-18,0.7-25.5-2.8c-0.4-0.2-0.7-0.4-1.1-0.6c0.4-1.6,0.6-3.4,0.5-5.4c-0.2-4-3.1-7.8-6.8-10.1c0.5-1.7,1.4-3.4,2.6-4.9
		c8.3-10.5,25.6,3.1,14.9,9.1c-0.4,0.2,2,1.4,2.7,1c8.4-4.3,2-11.5-4-14.4c-6.9-3.3-16.7-2.8-20.1,5.1c-0.3,0.7-0.5,1.3-0.8,2
		c-5-1.3-9.9,0.2-11.2,6.6c-0.1,0.3,1.1,0.6,1.2,0.3c1.3-4.9,5.8-6.9,9.8-6.1c-2.2,7.7,1.2,12.9,6.8,16.4c-0.6,1.5-1.5,3-2.6,4.4
		c-6.9,8.6-19.5,9.6-29.7,7.9c-23.9-3.9-42.1-26.7-67.9-22.7c-9.2,1.4-23.8,6.7-23.2,18.4c0.5,9.8,9.1,16.6,18.6,16.8
		c7.7,0.1,14.1-8.4,7.8-14.4c-3.2-3-9.5-4.2-9.4,1.5c0,0.4,1.5,0.8,1.5,0.4c1.1-6.2,9.8-0.3,6.6,5.1c-5.1,8.4-17.8,4.3-19.3-4.8
		C85-58.3,99.6-65.5,111.3-66c23.2-0.9,39.8,19.4,62,22.9c12,1.9,31,0.7,35.4-12.1c5.1,2.2,11.1,3.3,16.3,3.6
		c4.3,0.3,8.6,0.4,12.8,0.2c5.1,4.4,12.9,6.5,19.4,6.2c14.6-0.5,27.7-7.8,39.9-15.1c14.8-8.9,29.3-18.9,44.8-26.5
		c6.5-3.2,13.4-6.4,20.6-7.7c4.4,1.9,8.3,5.2,11.1,10.5c5.2,9.7,8,25.3-2.8,32.7c-7.5,5.2-19,5.3-24.2-3.3c-1.4-2.3-2.4-5.2-1.1-7.8
		c0.8-1.5,1.7-3.1,3.1-4c1-0.6,6-3.4,5.7,0.9c0,0.5,1.9,0.9,1.9,0.5c0.6-4.3-4.6-4.8-7.8-4c-7,1.7-9.6,8.8-5.5,14.6
		c8.1,11.4,27.5,11.8,36.1,1.2c6.4-7.9,4.9-21.9-0.6-30c-3.4-5-7.8-9-12.9-11.8c7.6-0.6,19.1,1,22.1,8.5c-0.2,0.9-0.2,1.9,0,2.9
		c0,0.3,0.6,0.1,0.8-0.1c0.2,0.2,0.8,0.3,0.8,0.1c0.2-1,0.1-2,0-2.9c3-7.5,14.6-9.1,22.1-8.5c-5.1,2.7-9.5,6.8-12.9,11.8
		c-5.5,8-7,22.1-0.6,30c8.6,10.6,28,10.2,36.1-1.2c4.2-5.8,1.5-12.9-5.5-14.6c-3.2-0.8-8.4-0.3-7.8,4c0.1,0.4,2,0,1.9-0.5
		c-0.3-4.3,4.7-1.5,5.7-0.9c1.5,0.9,2.4,2.5,3.1,4c1.3,2.6,0.3,5.5-1.1,7.8c-5.2,8.7-16.7,8.5-24.2,3.3c-10.7-7.4-8-23-2.8-32.7
		c2.8-5.3,6.7-8.6,11.1-10.5c7.2,1.2,14.1,4.4,20.6,7.7c15.5,7.6,30,17.6,44.8,26.5c12.3,7.4,25.3,14.6,39.9,15.1
		c6.5,0.2,14.3-1.8,19.4-6.2c4.3,0.2,8.6,0.1,12.8-0.2c5.2-0.4,11.2-1.5,16.3-3.6c4.5,12.8,23.5,13.9,35.4,12.1
		c22.3-3.5,38.9-23.8,62-22.9c11.7,0.5,26.3,7.6,24.1,21.4c-1.5,9.2-14.2,13.3-19.3,4.8c-3.2-5.4,5.5-11.3,6.6-5.1
		c0.1,0.4,1.5,0,1.5-0.4c0.1-5.6-6.2-4.5-9.4-1.5c-6.3,6,0.1,14.5,7.8,14.4c9.5-0.2,18-7,18.6-16.8
		C696.5-60.9,681.9-66.2,672.7-67.6z M205.6-59.9c-2.7-3.1-3.8-7.1-3-11.2c0.7,0.8,1.4,1.6,1.8,2.7
		C205.7-65.5,206.1-62.7,205.6-59.9z M328.1-83.8c-15.5,8.9-30.5,19.2-46.5,27.4c-7.5,3.8-15.7,7.8-24.2,8.2
		c-4.9,0.2-11.3-0.6-16.4-3.3c3.3-0.2,6.6-0.6,9.8-1.2c10.7-1.9,20.1-7.2,29.4-12.6c14.7-8.5,28.9-18.3,44.7-24.9
		c9.2-3.9,21-7.5,31.2-6C346.1-93.9,336.6-88.7,328.1-83.8z M519.9-48.2c-8.5-0.4-16.8-4.4-24.2-8.2c-16-8.1-30.9-18.4-46.5-27.4
		c-8.5-4.9-18.1-10.1-28-12.5c10.2-1.5,22,2.2,31.2,6c15.7,6.6,29.9,16.4,44.7,24.9c9.3,5.4,18.8,10.7,29.4,12.6
		c3.2,0.6,6.5,1,9.8,1.2C531.2-48.9,524.8-48,519.9-48.2z M571.7-59.9c-0.5-2.8-0.2-5.7,1.1-8.5c0.5-1.1,1.1-2,1.8-2.7
		C575.5-67,574.4-62.9,571.7-59.9z"/>
</g>
<g>
	<path class="st7" d="M454.5,69.2c-5.4,2-6.5,8.7-1,11.2c0.3,0.1,1.5-0.4,1.2-0.5c-6-3.1-2.2-11.9,5-10.1c5.9,1.4,7.6,8.1,6.1,13.2
		c-2.7,9.3-14,9.1-21.4,6.4c-14-5.2-18.4-22.4-31-29.5c1.1-3.2,1.4-6.6,1.1-10c-1.5-16.6-17.1-22.2-31.6-19.2
		c-4.4,0.9-8.7,2.8-12.4,5.4c-3.7-2.6-8-4.5-12.4-5.4c-14.5-3-30.1,2.6-31.6,19.2c-0.3,3.4,0,6.9,1.1,10c-12.6,7.1-17,24.4-31,29.5
		c-7.4,2.7-18.7,2.9-21.4-6.4c-1.5-5.1,0.2-11.8,6.1-13.2c7.2-1.7,11,7,5,10.1c-0.2,0.1,0.9,0.7,1.2,0.5c5.5-2.5,4.4-9.2-1-11.2
		c-6.3-2.4-14.9,2-14.7,9.4c0.4,13.7,17.6,16.5,27.9,12.2c13.3-5.5,17.9-20.5,29.1-28.4c1,1.8,2.3,3.4,3.9,4.8
		c5,4.1,12.3,6.2,17.2,0.9c0.2-0.2-0.3-0.3-0.4-0.2c-6.8,5-15.8,0.4-18.7-6.7c0.2-0.1,0.4-0.2,0.6-0.3c9.1-5,21.4-0.6,24.8,9.5
		c1.8,5.2,1.8,11.6-3.1,15.2c-7.3,5.4-13.6-5.2-7.9-6.6c0,0,0,0-0.1,0c-6.4,0.8-3.2,7.5,1.3,9c6.9,2.2,14.5-3.4,14-11
		c-1.1-14.3-17.2-23.9-30.4-18.3c-1.1-4.3-0.8-8.9,0.8-13.1c4-10.8,14.1-15.1,25.2-13.1c4.5,0.8,8.9,2.5,12.7,5.1
		c-5.9,5-9.7,12.1-8.4,20.5c0.8,5.7,5.7,8.3,10.4,8.2c4.7,0,9.6-2.6,10.4-8.2c1.2-8.3-2.5-15.4-8.4-20.5c3.7-2.6,8.2-4.3,12.7-5.1
		c11.1-2,21.1,2.3,25.2,13.1c1.6,4.2,1.9,8.8,0.8,13.1c-13.3-5.7-29.4,4-30.4,18.3c-0.6,7.6,7,13.2,14,11c4.6-1.5,7.8-8.2,1.3-9
		c0,0-0.1,0-0.1,0c5.7,1.4-0.6,12-7.9,6.6c-4.9-3.7-4.9-10-3.1-15.2c3.4-10.1,15.7-14.5,24.8-9.5c0.2,0.1,0.4,0.2,0.6,0.3
		c-3,7.1-11.9,11.7-18.7,6.7c-0.1-0.1-0.6,0.1-0.4,0.2c4.9,5.3,12.2,3.2,17.2-0.9c1.7-1.4,2.9-3,3.9-4.8
		c11.2,7.8,15.9,22.9,29.1,28.4c10.3,4.2,27.5,1.5,27.9-12.2C469.4,71.2,460.8,66.8,454.5,69.2z M377.7,51.8
		c0.5,3.5,0.5,8.2-2.5,10.7c-1.4,1.2-3.1,1.8-4.7,1.9c-1.6-0.1-3.3-0.6-4.7-1.9c-3-2.6-3-7.2-2.5-10.7c0.8-5.2,3.5-9.5,7.2-12.7
		C374.2,42.4,376.9,46.6,377.7,51.8z"/>
	<path class="st7" d="M706.5,83.5c-4.2,0.7-8.5-3.4-12.1-5.2c-2.4-1.2-5.1-1.7-7.7-1.9c-2.1-0.1-7,0-6.7,3.1c0,0,0.1,0,0.1,0
		c2.5-7,15.5,0.9,18.5,2.9c0.4,0.3,0.9,0.6,1.3,0.8c-8.1-0.7-16.3-0.4-24.4-0.5c-9.1-0.1-18.3-0.1-27.5,0c-19.7,0.2-39.4,0-59.2,0.2
		c-38,0.3-75.9-0.5-113.9,0.5c0.4-2,1.8-3.6,3.8-4.4c0.2-0.1,0.3-0.3,0-0.3c-2.7,0.1-5.1,2.1-6.3,4.4c-1.6,3.1-0.1,6.4,3.5,6.6
		c0.3,0,1.4-0.2,1.3-0.7c-0.2-0.8-1-1.4-1.5-2c-0.5-0.6-0.7-1.4-0.8-2.2c37.5,1.1,75.1,0.2,112.6,0.5c19.3,0.1,38.5-0.1,57.8,0.1
		c9.5,0.1,19.1-0.1,28.6,0c8.6,0.1,17.3,0.2,25.8-0.5c-1.1,0.5-2.1,1.1-3.1,1.7c-1.9,1.2-3.8,2.5-5.8,3.5c-1.5,0.8-3,1.2-4.6,1.4
		c-2.5,0.4-5.3-2.5-2.6-4.2c0.5-0.3,0.1-0.7-0.4-0.7c-1.2,0.2-3,0.7-2.8,2.3c0.2,2.6,2.9,3.3,5.1,3.7c2.4,0.4,5-1,7.1-2.1
		c3.7-2,6.5-4.6,10.2-6c0.1,0,0.2,0,0.3,0c0.2,0,0.4-0.1,0.6-0.3c0.1,0,0.3-0.1,0.4-0.1c0.8-0.1,1.6-0.2,2.5-0.6
		C706.7,83.7,706.7,83.5,706.5,83.5z"/>
	<path class="st7" d="M262.2,78.8c-0.3,0-0.2,0.2,0,0.3c1.9,0.8,3.4,2.3,3.8,4.4C228,82.4,190,83.2,152.1,83
		c-19.7-0.2-39.4,0.1-59.2-0.2c-9.1-0.1-18.3-0.1-27.5,0c-8.1,0.1-16.3-0.2-24.4,0.5c0.4-0.2,0.9-0.5,1.3-0.8c3-2.1,16-10,18.5-2.9
		c0,0,0.1,0.1,0.1,0c0.3-3.2-4.6-3.3-6.7-3.1c-2.7,0.2-5.3,0.7-7.7,1.9c-3.7,1.8-7.9,5.9-12.1,5.2c-0.2,0-0.2,0.1,0,0.2
		c0.9,0.3,1.7,0.5,2.5,0.6c0.1,0,0.3,0.1,0.4,0.1c0.2,0.1,0.4,0.3,0.6,0.3c0.1,0,0.2,0,0.3,0c3.7,1.4,6.5,4,10.2,6
		c2,1.1,4.7,2.5,7.1,2.1c2.2-0.4,4.9-1.1,5.1-3.7c0.1-1.6-1.6-2.1-2.8-2.3c-0.5-0.1-0.8,0.4-0.4,0.7c2.7,1.7-0.1,4.6-2.6,4.2
		C53,91.5,51.5,91,50,90.3c-2-1-3.9-2.3-5.8-3.5c-1-0.6-2-1.2-3.1-1.7c8.6,0.7,17.3,0.6,25.8,0.5c9.5-0.1,19.1,0.1,28.6,0
		c19.3-0.2,38.5,0,57.8-0.1c37.5-0.3,75.1,0.6,112.6-0.5c-0.1,0.8-0.3,1.6-0.8,2.2c-0.5,0.6-1.4,1.2-1.5,2c-0.1,0.5,1,0.7,1.3,0.7
		c3.6-0.1,5.1-3.5,3.5-6.6C267.3,80.9,264.9,78.9,262.2,78.8z"/>
</g>
</svg>
