<?xml version="1.0" encoding="utf-8"?>
<!-- Generator: Adobe Illustrator 19.2.1, SVG Export Plug-In . SVG Version: 6.00 Build 0)  -->
<svg version="1.1" xmlns="http://www.w3.org/2000/svg" xmlns:xlink="http://www.w3.org/1999/xlink" x="0px" y="0px"
	 viewBox="0 0 1700 1700" style="enable-background:new 0 0 1700 1700;" xml:space="preserve">
<style type="text/css">
	.st0{fill:none;}
	.st1{fill:#231F20;}
	.st2{display:none;}
	.st3{display:none;fill:#FFEBC4;}
	.st4{display:inline;}
	.st5{fill:#FF626F;}
	.st6{opacity:0.49;}
	.st7{fill:#A9A9A9;}
	.st8{fill:url(#_x36__dpi_70_x25_);}
	.st9{fill:#767676;}
	.st10{fill:#3D3D3B;}
	.st11{fill:#FF7E81;}
	.st12{fill:#FFFFFF;}
	.st13{fill:#61635F;}
	.st14{fill:#A4A9A1;}
	.st15{fill:#D8D8C7;}
</style>
<pattern  width="48" height="48" patternUnits="userSpaceOnUse" id="_x36__dpi_70_x25_" viewBox="56.4 -60 48 48" style="overflow:visible;">
	<g>
		<rect x="56.4" y="-60" class="st0" width="48" height="48"/>
		<circle class="st1" cx="56.4" cy="-12" r="8.4"/>
		<circle class="st1" cx="80.4" cy="-12" r="8.4"/>
		<circle class="st1" cx="104.4" cy="-12" r="8.4"/>
		<circle class="st1" cx="56.4" cy="-36" r="8.4"/>
		<circle class="st1" cx="80.4" cy="-36" r="8.4"/>
		<circle class="st1" cx="104.4" cy="-36" r="8.4"/>
		<circle class="st1" cx="56.4" cy="-60" r="8.4"/>
		<circle class="st1" cx="80.4" cy="-60" r="8.4"/>
		<circle class="st1" cx="104.4" cy="-60" r="8.4"/>
		<circle class="st1" cx="8.4" cy="-60" r="8.4"/>
		<path class="st1" d="M8.4-60"/>
		<path class="st1" d="M116.4-32.4c-4.6,0-8.4,3.8-8.4,8.4c0,4.6,3.8,8.4,8.4,8.4V-32.4z"/>
		<circle class="st1" cx="92.4" cy="-24" r="8.4"/>
		<circle class="st1" cx="68.4" cy="-24" r="8.4"/>
		<path class="st1" d="M44.4-15.6c4.6,0,8.4-3.8,8.4-8.4c0-4.6-3.8-8.4-8.4-8.4V-15.6z"/>
		<path class="st1" d="M116.4-56.4c-4.6,0-8.4,3.8-8.4,8.4c0,4.6,3.8,8.4,8.4,8.4V-56.4z"/>
		<circle class="st1" cx="92.4" cy="-48" r="8.4"/>
		<circle class="st1" cx="68.4" cy="-48" r="8.4"/>
		<path class="st1" d="M44.4-39.6c4.6,0,8.4-3.8,8.4-8.4c0-4.6-3.8-8.4-8.4-8.4V-39.6z"/>
		<path class="st1" d="M84-72c0,4.6,3.8,8.4,8.4,8.4c4.6,0,8.4-3.8,8.4-8.4H84z"/>
		<path class="st1" d="M60-72c0,4.6,3.8,8.4,8.4,8.4c4.6,0,8.4-3.8,8.4-8.4H60z"/>
		<path class="st1" d="M100.8,0c0-4.6-3.8-8.4-8.4-8.4C87.8-8.4,84-4.6,84,0H100.8z"/>
		<path class="st1" d="M76.8,0c0-4.6-3.8-8.4-8.4-8.4C63.8-8.4,60-4.6,60,0H76.8z"/>
		<circle class="st1" cx="20.4" cy="-48" r="8.4"/>
		<path class="st1" d="M20.4-48"/>
	</g>
</pattern>
<g id="Layer_3" class="st2">
</g>
<g id="Layer_2" class="st2">
</g>
<g id="Layer_4" class="st2">
</g>
<g id="Layer_5" class="st2">
</g>
<g id="Layer_6" class="st2">
</g>
<g id="Layer_7" class="st2">
</g>
<g id="Layer_8">
	<rect class="st3" width="1700" height="1700"/>
	<g class="st2">
		<g class="st4">
			<path class="st5" d="M625.1,1657.1v-0.5c-0.7,0.8-1.3,1.4-1.9,1.8c-0.6,0.5-1.3,0.8-2.1,1.1c-0.7,0.2-1.6,0.4-2.5,0.4
				c-1.2,0-2.3-0.3-3.3-0.7c-1-0.5-1.9-1.2-2.6-2.1c-0.7-0.9-1.3-2-1.7-3.3c-0.4-1.2-0.6-2.6-0.6-4c0-3.1,0.7-5.5,2.2-7.2
				c1.5-1.7,3.5-2.6,5.9-2.6c1.4,0,2.6,0.2,3.6,0.7c1,0.5,1.9,1.2,2.8,2.2v-7.3c0-1,0.2-1.8,0.6-2.3c0.4-0.5,1-0.8,1.7-0.8
				c0.7,0,1.3,0.2,1.7,0.7c0.4,0.5,0.6,1.2,0.6,2.1v21.6c0,0.9-0.2,1.6-0.6,2.1c-0.4,0.5-1,0.7-1.7,0.7c-0.7,0-1.2-0.2-1.7-0.7
				C625.4,1658.7,625.1,1658,625.1,1657.1z M615.5,1649.9c0,1.3,0.2,2.5,0.6,3.4c0.4,0.9,1,1.6,1.7,2.1c0.7,0.5,1.5,0.7,2.4,0.7
				c0.9,0,1.6-0.2,2.4-0.7c0.7-0.5,1.3-1.1,1.7-2.1c0.4-0.9,0.6-2.1,0.6-3.5c0-1.3-0.2-2.4-0.6-3.4c-0.4-0.9-1-1.7-1.7-2.2
				c-0.7-0.5-1.5-0.7-2.4-0.7c-0.9,0-1.7,0.2-2.4,0.8c-0.7,0.5-1.3,1.2-1.6,2.2C615.7,1647.6,615.5,1648.7,615.5,1649.9z"/>
			<path class="st5" d="M648.4,1651.2h-9.6c0,1.1,0.2,2.1,0.7,3c0.4,0.8,1,1.5,1.7,1.9c0.7,0.4,1.5,0.7,2.4,0.7
				c0.6,0,1.1-0.1,1.6-0.2c0.5-0.1,1-0.4,1.4-0.7c0.5-0.3,0.9-0.6,1.3-0.9c0.4-0.3,0.9-0.8,1.5-1.4c0.3-0.2,0.6-0.3,1.1-0.3
				c0.5,0,0.9,0.1,1.2,0.4c0.3,0.3,0.5,0.7,0.5,1.2c0,0.4-0.2,1-0.5,1.6c-0.4,0.6-0.9,1.2-1.6,1.7c-0.7,0.5-1.6,1-2.6,1.4
				c-1.1,0.4-2.3,0.5-3.7,0.5c-3.2,0-5.6-0.9-7.4-2.7c-1.8-1.8-2.6-4.2-2.6-7.3c0-1.4,0.2-2.8,0.6-4c0.4-1.2,1.1-2.3,1.9-3.2
				c0.8-0.9,1.8-1.6,3.1-2c1.2-0.5,2.6-0.7,4-0.7c1.9,0,3.6,0.4,4.9,1.2c1.4,0.8,2.4,1.9,3.1,3.1c0.7,1.3,1,2.6,1,3.9
				c0,1.2-0.4,2-1.1,2.4C650.7,1651,649.7,1651.2,648.4,1651.2z M638.8,1648.4h8.9c-0.1-1.7-0.6-2.9-1.4-3.8
				c-0.8-0.8-1.8-1.3-3.1-1.3c-1.2,0-2.2,0.4-3,1.3C639.5,1645.5,639,1646.7,638.8,1648.4z"/>
			<path class="st5" d="M672.4,1653.5c0,1.4-0.3,2.5-1,3.5c-0.7,1-1.6,1.7-2.9,2.2c-1.3,0.5-2.9,0.7-4.7,0.7c-1.8,0-3.3-0.3-4.5-0.8
				c-1.3-0.5-2.2-1.2-2.8-2c-0.6-0.8-0.9-1.6-0.9-2.4c0-0.5,0.2-1,0.6-1.4c0.4-0.4,0.9-0.6,1.5-0.6c0.5,0,0.9,0.1,1.2,0.4
				c0.3,0.3,0.5,0.6,0.8,1.1c0.5,0.9,1.1,1.5,1.8,2c0.7,0.4,1.7,0.6,2.9,0.6c1,0,1.8-0.2,2.4-0.7c0.6-0.4,0.9-0.9,0.9-1.5
				c0-0.9-0.3-1.5-1-1.9c-0.7-0.4-1.7-0.8-3.2-1.1c-1.7-0.4-3.1-0.9-4.1-1.3c-1.1-0.5-1.9-1.1-2.5-1.8c-0.6-0.8-1-1.7-1-2.8
				c0-1,0.3-1.9,0.9-2.8c0.6-0.9,1.5-1.6,2.6-2.1c1.1-0.5,2.5-0.8,4.1-0.8c1.3,0,2.4,0.1,3.4,0.4c1,0.3,1.9,0.6,2.5,1.1
				c0.7,0.4,1.2,0.9,1.5,1.5c0.3,0.5,0.5,1.1,0.5,1.6c0,0.6-0.2,1-0.6,1.4c-0.4,0.4-0.9,0.5-1.6,0.5c-0.5,0-0.9-0.1-1.3-0.4
				c-0.4-0.3-0.8-0.7-1.2-1.3c-0.4-0.5-0.8-0.9-1.3-1.2c-0.5-0.3-1.2-0.4-2.1-0.4c-0.9,0-1.6,0.2-2.2,0.6c-0.6,0.4-0.9,0.8-0.9,1.4
				c0,0.5,0.2,0.9,0.6,1.3c0.4,0.3,1,0.6,1.7,0.8c0.7,0.2,1.7,0.5,3,0.8c1.5,0.4,2.8,0.8,3.7,1.3c1,0.5,1.7,1.1,2.2,1.8
				C672.1,1651.8,672.4,1652.6,672.4,1653.5z"/>
			<path class="st5" d="M679,1637.7c-0.7,0-1.3-0.2-1.8-0.6c-0.5-0.4-0.7-1-0.7-1.8c0-0.7,0.2-1.3,0.7-1.7c0.5-0.5,1.1-0.7,1.7-0.7
				c0.6,0,1.2,0.2,1.7,0.6c0.5,0.4,0.7,1,0.7,1.8c0,0.8-0.2,1.3-0.7,1.8C680.3,1637.5,679.7,1637.7,679,1637.7z M681.5,1642.8v14.2
				c0,1-0.2,1.7-0.7,2.2c-0.5,0.5-1.1,0.8-1.8,0.8s-1.3-0.3-1.8-0.8c-0.5-0.5-0.7-1.3-0.7-2.2v-14c0-1,0.2-1.7,0.7-2.2
				c0.4-0.5,1-0.7,1.8-0.7s1.3,0.2,1.8,0.7C681.2,1641.2,681.5,1641.9,681.5,1642.8z"/>
			<path class="st5" d="M704.6,1643.6v14.3c0,1.6-0.2,3-0.5,4.2c-0.3,1.2-0.9,2.1-1.7,2.9c-0.8,0.8-1.8,1.3-3,1.7
				c-1.2,0.4-2.8,0.6-4.6,0.6c-1.7,0-3.2-0.2-4.5-0.7c-1.3-0.5-2.4-1.1-3.1-1.8c-0.7-0.8-1.1-1.5-1.1-2.3c0-0.6,0.2-1.1,0.6-1.5
				c0.4-0.4,0.9-0.6,1.5-0.6c0.7,0,1.4,0.3,1.9,1c0.3,0.3,0.5,0.7,0.8,1c0.3,0.3,0.6,0.6,0.9,0.8c0.3,0.2,0.8,0.4,1.2,0.5
				c0.5,0.1,1,0.2,1.7,0.2c1.3,0,2.3-0.2,3-0.5c0.7-0.4,1.2-0.8,1.5-1.5c0.3-0.6,0.4-1.3,0.5-2c0-0.7,0.1-1.9,0.1-3.5
				c-0.8,1.1-1.6,1.9-2.6,2.4c-1,0.6-2.2,0.8-3.5,0.8c-1.6,0-3.1-0.4-4.3-1.3c-1.2-0.8-2.2-2-2.8-3.5c-0.7-1.5-1-3.3-1-5.2
				c0-1.5,0.2-2.8,0.6-4c0.4-1.2,1-2.2,1.7-3c0.7-0.8,1.6-1.4,2.6-1.8c1-0.4,2-0.6,3.2-0.6c1.4,0,2.6,0.3,3.6,0.8
				c1,0.5,2,1.4,2.8,2.5v-0.7c0-0.9,0.2-1.5,0.6-2c0.4-0.5,1-0.7,1.6-0.7c0.9,0,1.6,0.3,1.9,0.9
				C704.4,1641.5,704.6,1642.4,704.6,1643.6z M690.4,1649.8c0,2,0.4,3.5,1.3,4.5c0.9,1,2,1.5,3.4,1.5c0.8,0,1.6-0.2,2.3-0.7
				c0.7-0.4,1.3-1.1,1.8-2c0.5-0.9,0.7-1.9,0.7-3.2c0-2-0.4-3.6-1.3-4.7c-0.9-1.1-2-1.7-3.5-1.7c-1.4,0-2.5,0.5-3.4,1.6
				C690.8,1646.3,690.4,1647.8,690.4,1649.8z"/>
			<path class="st5" d="M714,1642.7v0.6c0.9-1.1,1.8-2,2.8-2.5c1-0.5,2.2-0.8,3.5-0.8c1.3,0,2.5,0.3,3.5,0.8c1,0.6,1.8,1.4,2.3,2.4
				c0.3,0.6,0.5,1.2,0.6,1.9c0.1,0.7,0.1,1.6,0.1,2.7v9.1c0,1-0.2,1.7-0.7,2.2c-0.5,0.5-1,0.8-1.8,0.8c-0.7,0-1.3-0.3-1.8-0.8
				c-0.5-0.5-0.7-1.3-0.7-2.2v-8.2c0-1.6-0.2-2.9-0.7-3.7c-0.5-0.9-1.4-1.3-2.7-1.3c-0.9,0-1.7,0.3-2.4,0.8
				c-0.7,0.5-1.2,1.2-1.6,2.1c-0.2,0.7-0.4,2.1-0.4,4.1v6.2c0,1-0.2,1.7-0.7,2.2c-0.5,0.5-1.1,0.7-1.8,0.7c-0.7,0-1.3-0.3-1.7-0.8
				c-0.5-0.5-0.7-1.3-0.7-2.2v-14.2c0-0.9,0.2-1.6,0.6-2.1c0.4-0.5,1-0.7,1.7-0.7c0.4,0,0.8,0.1,1.2,0.3c0.3,0.2,0.6,0.5,0.8,0.9
				C713.9,1641.6,714,1642.1,714,1642.7z"/>
			<path class="st5" d="M745.5,1651.2h-9.6c0,1.1,0.2,2.1,0.7,3c0.4,0.8,1,1.5,1.7,1.9c0.7,0.4,1.5,0.7,2.4,0.7
				c0.6,0,1.1-0.1,1.6-0.2c0.5-0.1,1-0.4,1.4-0.7c0.5-0.3,0.9-0.6,1.3-0.9c0.4-0.3,0.9-0.8,1.5-1.4c0.2-0.2,0.6-0.3,1.1-0.3
				c0.5,0,0.9,0.1,1.2,0.4c0.3,0.3,0.5,0.7,0.5,1.2c0,0.4-0.2,1-0.5,1.6c-0.3,0.6-0.9,1.2-1.6,1.7c-0.7,0.5-1.6,1-2.6,1.4
				c-1.1,0.4-2.3,0.5-3.7,0.5c-3.2,0-5.6-0.9-7.4-2.7c-1.8-1.8-2.6-4.2-2.6-7.3c0-1.4,0.2-2.8,0.6-4c0.4-1.2,1.1-2.3,1.9-3.2
				c0.8-0.9,1.8-1.6,3.1-2c1.2-0.5,2.6-0.7,4-0.7c1.9,0,3.6,0.4,4.9,1.2c1.4,0.8,2.4,1.9,3.1,3.1c0.7,1.3,1,2.6,1,3.9
				c0,1.2-0.4,2-1.1,2.4C747.8,1651,746.8,1651.2,745.5,1651.2z M735.9,1648.4h8.9c-0.1-1.7-0.6-2.9-1.4-3.8
				c-0.8-0.8-1.8-1.3-3.1-1.3c-1.2,0-2.2,0.4-3,1.3C736.5,1645.5,736.1,1646.7,735.9,1648.4z"/>
			<path class="st5" d="M767.1,1657.1v-0.5c-0.7,0.8-1.3,1.4-2,1.8c-0.6,0.5-1.3,0.8-2.1,1.1c-0.8,0.2-1.6,0.4-2.5,0.4
				c-1.2,0-2.3-0.3-3.3-0.7c-1-0.5-1.9-1.2-2.6-2.1c-0.7-0.9-1.3-2-1.7-3.3c-0.4-1.2-0.6-2.6-0.6-4c0-3.1,0.8-5.5,2.3-7.2
				c1.5-1.7,3.5-2.6,5.9-2.6c1.4,0,2.6,0.2,3.6,0.7c1,0.5,1.9,1.2,2.8,2.2v-7.3c0-1,0.2-1.8,0.6-2.3c0.4-0.5,1-0.8,1.7-0.8
				c0.7,0,1.3,0.2,1.7,0.7c0.4,0.5,0.6,1.2,0.6,2.1v21.6c0,0.9-0.2,1.6-0.7,2.1c-0.4,0.5-1,0.7-1.7,0.7c-0.7,0-1.2-0.2-1.7-0.7
				C767.3,1658.7,767.1,1658,767.1,1657.1z M757.5,1649.9c0,1.3,0.2,2.5,0.6,3.4c0.4,0.9,1,1.6,1.7,2.1c0.7,0.5,1.5,0.7,2.4,0.7
				c0.9,0,1.7-0.2,2.4-0.7c0.7-0.5,1.3-1.1,1.7-2.1c0.4-0.9,0.6-2.1,0.6-3.5c0-1.3-0.2-2.4-0.6-3.4c-0.4-0.9-1-1.7-1.7-2.2
				c-0.7-0.5-1.5-0.7-2.4-0.7c-0.9,0-1.7,0.2-2.4,0.8c-0.7,0.5-1.3,1.2-1.6,2.2C757.7,1647.6,757.5,1648.7,757.5,1649.9z"/>
			<path class="st5" d="M790.4,1635.5v7.5c0.9-1,1.9-1.7,2.8-2.2c1-0.5,2.1-0.8,3.6-0.8c1.6,0,3.1,0.4,4.3,1.2
				c1.2,0.8,2.2,1.9,2.9,3.4c0.7,1.5,1,3.2,1,5.2c0,1.5-0.2,2.9-0.6,4.1c-0.4,1.2-0.9,2.3-1.6,3.2c-0.7,0.9-1.6,1.6-2.6,2.1
				c-1,0.5-2.2,0.7-3.4,0.7c-0.8,0-1.5-0.1-2.1-0.3c-0.7-0.2-1.2-0.4-1.7-0.7c-0.5-0.3-0.9-0.6-1.2-0.9c-0.3-0.3-0.8-0.8-1.3-1.4
				v0.5c0,0.9-0.2,1.6-0.7,2.1c-0.4,0.5-1,0.7-1.7,0.7c-0.7,0-1.2-0.2-1.7-0.7c-0.4-0.5-0.6-1.2-0.6-2.1v-21.4c0-1,0.2-1.7,0.6-2.3
				c0.4-0.5,1-0.8,1.7-0.8c0.8,0,1.3,0.2,1.7,0.7C790.2,1633.9,790.4,1634.6,790.4,1635.5z M790.7,1650.1c0,2,0.4,3.5,1.3,4.5
				c0.9,1,2.1,1.6,3.5,1.6c1.2,0,2.3-0.5,3.2-1.6c0.9-1.1,1.3-2.6,1.3-4.6c0-1.3-0.2-2.4-0.6-3.3c-0.4-0.9-0.9-1.7-1.6-2.2
				c-0.7-0.5-1.5-0.8-2.4-0.8c-0.9,0-1.8,0.2-2.5,0.8c-0.7,0.5-1.3,1.2-1.7,2.2C790.9,1647.6,790.7,1648.7,790.7,1650.1z"/>
			<path class="st5" d="M813,1660.6l0.4-1.1l-6-15.2c-0.4-0.9-0.6-1.5-0.6-1.9c0-0.4,0.1-0.8,0.3-1.2c0.2-0.4,0.5-0.6,0.9-0.9
				c0.4-0.2,0.8-0.3,1.2-0.3c0.7,0,1.2,0.2,1.6,0.7c0.4,0.5,0.7,1.1,1,1.9l4.2,12.1l3.9-11.2c0.3-0.9,0.6-1.6,0.8-2.1
				c0.2-0.5,0.5-0.9,0.8-1c0.3-0.2,0.7-0.3,1.2-0.3c0.4,0,0.7,0.1,1.1,0.3c0.3,0.2,0.6,0.5,0.8,0.8c0.2,0.3,0.3,0.7,0.3,1.1
				c0,0.2-0.1,0.6-0.2,1c-0.1,0.4-0.2,0.8-0.4,1.3l-6.4,16.8c-0.6,1.5-1.1,2.6-1.6,3.5c-0.5,0.8-1.2,1.5-2.1,1.9
				c-0.9,0.4-2,0.7-3.5,0.7c-1.4,0-2.5-0.2-3.2-0.5c-0.7-0.3-1.1-0.9-1.1-1.7c0-0.6,0.2-1,0.5-1.3c0.3-0.3,0.8-0.5,1.5-0.5
				c0.3,0,0.5,0,0.8,0.1c0.3,0.1,0.6,0.1,0.8,0.1c0.6,0,1-0.1,1.3-0.3c0.3-0.2,0.6-0.5,0.9-0.9C812.3,1662,812.6,1661.4,813,1660.6z
				"/>
		</g>
		<g class="st4">
			<path class="st5" d="M903.8,1640.4h1.2v-1.5c0-1.5,0.2-2.8,0.6-3.7c0.4-0.9,1-1.6,2-2c0.9-0.4,2.2-0.6,3.8-0.6
				c2.9,0,4.3,0.7,4.3,2.1c0,0.5-0.2,0.8-0.5,1.2c-0.3,0.3-0.7,0.5-1.1,0.5c-0.2,0-0.5,0-1-0.1c-0.5-0.1-0.9-0.1-1.2-0.1
				c-0.9,0-1.5,0.3-1.7,0.8c-0.3,0.5-0.4,1.3-0.4,2.2v1.2h1.2c1.9,0,2.8,0.6,2.8,1.7c0,0.8-0.2,1.3-0.7,1.5
				c-0.5,0.2-1.2,0.3-2.1,0.3h-1.2v13c0,1-0.2,1.7-0.7,2.2c-0.5,0.5-1.1,0.8-1.8,0.8c-0.7,0-1.3-0.3-1.7-0.8
				c-0.5-0.5-0.7-1.2-0.7-2.2v-13h-1.3c-0.7,0-1.3-0.2-1.7-0.5c-0.4-0.3-0.6-0.8-0.6-1.3C901.3,1641,902.2,1640.4,903.8,1640.4z"/>
			<path class="st5" d="M921.4,1652.9v4.1c0,1-0.2,1.7-0.7,2.2c-0.5,0.5-1.1,0.7-1.8,0.7c-0.7,0-1.3-0.3-1.7-0.8
				c-0.5-0.5-0.7-1.2-0.7-2.2v-13.7c0-2.2,0.8-3.3,2.4-3.3c0.8,0,1.4,0.3,1.8,0.8c0.4,0.5,0.6,1.3,0.6,2.3c0.6-1,1.2-1.8,1.8-2.3
				c0.6-0.5,1.4-0.8,2.5-0.8c1,0,2,0.3,3,0.8c1,0.5,1.5,1.2,1.5,2.1c0,0.6-0.2,1.1-0.6,1.5c-0.4,0.4-0.8,0.6-1.3,0.6
				c-0.2,0-0.6-0.1-1.3-0.3c-0.7-0.2-1.3-0.3-1.8-0.3c-0.7,0-1.3,0.2-1.8,0.6c-0.5,0.4-0.8,0.9-1.1,1.7c-0.2,0.7-0.4,1.6-0.5,2.7
				C921.4,1650.1,921.4,1651.4,921.4,1652.9z"/>
			<path class="st5" d="M945.4,1651.2h-9.6c0,1.1,0.2,2.1,0.7,3c0.4,0.8,1,1.5,1.7,1.9c0.7,0.4,1.5,0.7,2.4,0.7
				c0.6,0,1.1-0.1,1.6-0.2c0.5-0.1,1-0.4,1.4-0.7c0.5-0.3,0.9-0.6,1.3-0.9c0.4-0.3,0.9-0.8,1.5-1.4c0.3-0.2,0.6-0.3,1.1-0.3
				c0.5,0,0.9,0.1,1.2,0.4c0.3,0.3,0.5,0.7,0.5,1.2c0,0.4-0.2,1-0.5,1.6c-0.4,0.6-0.9,1.2-1.6,1.7c-0.7,0.5-1.6,1-2.7,1.4
				c-1.1,0.4-2.3,0.5-3.7,0.5c-3.2,0-5.6-0.9-7.3-2.7c-1.8-1.8-2.6-4.2-2.6-7.3c0-1.4,0.2-2.8,0.6-4c0.4-1.2,1.1-2.3,1.9-3.2
				c0.8-0.9,1.9-1.6,3.1-2c1.2-0.5,2.6-0.7,4-0.7c1.9,0,3.6,0.4,4.9,1.2c1.4,0.8,2.4,1.9,3.1,3.1c0.7,1.3,1,2.6,1,3.9
				c0,1.2-0.3,2-1.1,2.4C947.7,1651,946.7,1651.2,945.4,1651.2z M935.8,1648.4h8.9c-0.1-1.7-0.6-2.9-1.4-3.8
				c-0.8-0.8-1.8-1.3-3.1-1.3c-1.2,0-2.2,0.4-3,1.3C936.4,1645.5,936,1646.7,935.8,1648.4z"/>
			<path class="st5" d="M967.3,1651.2h-9.6c0,1.1,0.2,2.1,0.7,3c0.4,0.8,1,1.5,1.7,1.9c0.7,0.4,1.5,0.7,2.4,0.7
				c0.6,0,1.1-0.1,1.6-0.2c0.5-0.1,1-0.4,1.4-0.7c0.5-0.3,0.9-0.6,1.3-0.9c0.4-0.3,0.9-0.8,1.5-1.4c0.2-0.2,0.6-0.3,1.1-0.3
				c0.5,0,0.9,0.1,1.2,0.4c0.3,0.3,0.5,0.7,0.5,1.2c0,0.4-0.2,1-0.5,1.6c-0.3,0.6-0.9,1.2-1.6,1.7c-0.7,0.5-1.6,1-2.6,1.4
				c-1.1,0.4-2.3,0.5-3.7,0.5c-3.2,0-5.6-0.9-7.4-2.7c-1.7-1.8-2.6-4.2-2.6-7.3c0-1.4,0.2-2.8,0.6-4c0.4-1.2,1.1-2.3,1.9-3.2
				c0.8-0.9,1.8-1.6,3.1-2c1.2-0.5,2.6-0.7,4-0.7c1.9,0,3.6,0.4,4.9,1.2c1.4,0.8,2.4,1.9,3.1,3.1c0.7,1.3,1,2.6,1,3.9
				c0,1.2-0.4,2-1.1,2.4C969.6,1651,968.6,1651.2,967.3,1651.2z M957.7,1648.4h8.9c-0.1-1.7-0.6-2.9-1.4-3.8
				c-0.8-0.8-1.8-1.3-3.1-1.3c-1.2,0-2.2,0.4-3,1.3C958.3,1645.5,957.8,1646.7,957.7,1648.4z"/>
			<path class="st5" d="M979.5,1642.7v0.6c0.9-1.1,1.9-2,2.9-2.5c1-0.5,2.1-0.8,3.4-0.8c1.5,0,2.9,0.4,4.2,1.2
				c1.3,0.8,2.3,1.9,3,3.4c0.7,1.5,1.1,3.3,1.1,5.3c0,1.5-0.2,2.9-0.6,4.2c-0.4,1.3-1,2.3-1.8,3.2c-0.7,0.9-1.6,1.5-2.6,2
				c-1,0.5-2.1,0.7-3.3,0.7c-1.4,0-2.6-0.3-3.5-0.8c-1-0.6-1.9-1.4-2.7-2.5v7.4c0,2.2-0.8,3.2-2.4,3.2c-0.9,0-1.5-0.3-1.8-0.8
				c-0.3-0.6-0.4-1.4-0.4-2.4v-21.2c0-0.9,0.2-1.6,0.6-2.1c0.4-0.5,1-0.7,1.7-0.7c0.7,0,1.3,0.2,1.7,0.7
				C979.3,1641.2,979.5,1641.8,979.5,1642.7z M989.1,1649.9c0-1.3-0.2-2.4-0.6-3.3c-0.4-0.9-0.9-1.6-1.6-2.1
				c-0.7-0.5-1.5-0.7-2.3-0.7c-1.4,0-2.5,0.5-3.4,1.6c-0.9,1.1-1.4,2.6-1.4,4.7c0,1.9,0.5,3.5,1.4,4.6c0.9,1.1,2.1,1.6,3.4,1.6
				c0.8,0,1.6-0.2,2.3-0.7c0.7-0.5,1.2-1.2,1.7-2.1C988.9,1652.4,989.1,1651.2,989.1,1649.9z"/>
			<path class="st5" d="M1000.5,1637.7c-0.7,0-1.3-0.2-1.8-0.6c-0.5-0.4-0.7-1-0.7-1.8c0-0.7,0.2-1.3,0.7-1.7
				c0.5-0.5,1.1-0.7,1.7-0.7c0.6,0,1.2,0.2,1.7,0.6c0.5,0.4,0.7,1,0.7,1.8c0,0.8-0.2,1.3-0.7,1.8
				C1001.7,1637.5,1001.1,1637.7,1000.5,1637.7z M1002.9,1642.8v14.2c0,1-0.2,1.7-0.7,2.2c-0.5,0.5-1.1,0.8-1.8,0.8
				c-0.7,0-1.3-0.3-1.7-0.8c-0.5-0.5-0.7-1.3-0.7-2.2v-14c0-1,0.2-1.7,0.7-2.2c0.5-0.5,1-0.7,1.7-0.7c0.7,0,1.3,0.2,1.8,0.7
				C1002.7,1641.2,1002.9,1641.9,1002.9,1642.8z"/>
			<path class="st5" d="M1020.2,1657.7l-4.3-7.1l-2.7,2.5v3.9c0,0.9-0.2,1.7-0.7,2.2c-0.5,0.5-1.1,0.8-1.7,0.8
				c-0.8,0-1.3-0.3-1.8-0.8c-0.4-0.5-0.6-1.2-0.6-2.2V1636c0-1.1,0.2-1.9,0.6-2.5c0.4-0.6,1-0.9,1.8-0.9c0.8,0,1.4,0.3,1.8,0.8
				c0.4,0.5,0.7,1.3,0.7,2.3v11.9l5.5-5.8c0.7-0.7,1.2-1.2,1.6-1.5c0.4-0.3,0.8-0.4,1.3-0.4c0.6,0,1.1,0.2,1.5,0.6
				c0.4,0.4,0.6,0.9,0.6,1.5c0,0.7-0.7,1.7-2,2.9l-2.6,2.4l5,7.9c0.4,0.6,0.6,1,0.8,1.3c0.2,0.3,0.2,0.6,0.2,0.9
				c0,0.8-0.2,1.4-0.6,1.8c-0.4,0.5-1,0.7-1.7,0.7c-0.6,0-1.1-0.2-1.4-0.5C1021.2,1659.1,1020.7,1658.5,1020.2,1657.7z"/>
			<path class="st5" d="M1032.3,1659.9c-0.7,0-1.4-0.2-1.9-0.7c-0.5-0.5-0.8-1.2-0.8-2c0-0.7,0.3-1.4,0.8-1.9
				c0.5-0.5,1.2-0.8,1.9-0.8s1.4,0.3,1.9,0.8c0.5,0.5,0.8,1.2,0.8,1.9c0,0.9-0.3,1.5-0.8,2
				C1033.7,1659.7,1033.1,1659.9,1032.3,1659.9z"/>
			<path class="st5" d="M1058.2,1653.9c0,0.6-0.2,1.3-0.6,2c-0.4,0.7-0.9,1.4-1.7,2c-0.8,0.6-1.7,1.1-2.8,1.5
				c-1.1,0.4-2.4,0.6-3.9,0.6c-3,0-5.4-0.9-7.1-2.7c-1.7-1.8-2.6-4.1-2.6-7.1c0-2,0.4-3.8,1.2-5.3c0.8-1.5,1.9-2.7,3.4-3.6
				c1.5-0.8,3.2-1.3,5.3-1.3c1.3,0,2.4,0.2,3.5,0.6c1.1,0.4,2,0.9,2.7,1.4c0.7,0.6,1.3,1.2,1.7,1.9c0.4,0.7,0.6,1.3,0.6,1.9
				c0,0.6-0.2,1.1-0.7,1.5c-0.4,0.4-1,0.6-1.6,0.6c-0.4,0-0.8-0.1-1-0.3c-0.3-0.2-0.6-0.5-0.9-1c-0.6-0.9-1.2-1.6-1.9-2.1
				c-0.7-0.5-1.5-0.7-2.5-0.7c-1.4,0-2.6,0.6-3.5,1.7c-0.9,1.1-1.3,2.7-1.3,4.6c0,0.9,0.1,1.8,0.3,2.5c0.2,0.8,0.6,1.4,1,2
				c0.4,0.5,0.9,1,1.6,1.2c0.6,0.3,1.3,0.4,2,0.4c1,0,1.8-0.2,2.5-0.7c0.7-0.5,1.3-1.1,1.9-2.1c0.3-0.5,0.6-1,1-1.3
				c0.3-0.3,0.8-0.5,1.3-0.5c0.6,0,1.1,0.2,1.5,0.7C1058,1652.9,1058.2,1653.3,1058.2,1653.9z"/>
			<path class="st5" d="M1080.9,1650c0,1.5-0.2,2.8-0.7,4c-0.5,1.2-1.1,2.3-2,3.2c-0.9,0.9-1.9,1.6-3.1,2c-1.2,0.5-2.5,0.7-4,0.7
				c-1.5,0-2.8-0.2-4-0.7c-1.2-0.5-2.2-1.2-3.1-2.1c-0.9-0.9-1.5-2-2-3.2c-0.5-1.2-0.7-2.6-0.7-4c0-1.5,0.2-2.8,0.7-4.1
				c0.4-1.2,1.1-2.3,2-3.2c0.8-0.9,1.9-1.5,3.1-2c1.2-0.5,2.5-0.7,4-0.7c1.5,0,2.8,0.2,4,0.7s2.2,1.2,3.1,2c0.9,0.9,1.5,1.9,2,3.2
				C1080.6,1647.1,1080.9,1648.5,1080.9,1650z M1075.9,1650c0-2-0.4-3.6-1.3-4.7c-0.9-1.1-2.1-1.7-3.6-1.7c-1,0-1.8,0.2-2.5,0.7
				c-0.7,0.5-1.3,1.2-1.7,2.2c-0.4,1-0.6,2.1-0.6,3.4c0,1.3,0.2,2.4,0.6,3.4c0.4,1,0.9,1.7,1.7,2.2c0.7,0.5,1.6,0.8,2.6,0.8
				c1.5,0,2.7-0.6,3.6-1.7C1075.5,1653.5,1075.9,1651.9,1075.9,1650z"/>
			<path class="st5" d="M1101.1,1650.3v6.5c0,1-0.2,1.8-0.7,2.3c-0.5,0.5-1.1,0.8-1.9,0.8c-0.7,0-1.3-0.3-1.8-0.8
				c-0.5-0.5-0.7-1.3-0.7-2.3v-7.8c0-1.2,0-2.2-0.1-2.9c-0.1-0.7-0.3-1.2-0.7-1.7c-0.4-0.4-1-0.7-1.8-0.7c-1.6,0-2.7,0.6-3.2,1.7
				c-0.5,1.1-0.8,2.7-0.8,4.7v6.6c0,1-0.2,1.8-0.7,2.3c-0.5,0.5-1.1,0.8-1.8,0.8c-0.7,0-1.3-0.3-1.8-0.8c-0.5-0.5-0.7-1.3-0.7-2.3
				v-14c0-0.9,0.2-1.6,0.6-2.1s1-0.7,1.7-0.7c0.7,0,1.2,0.2,1.7,0.7c0.4,0.5,0.7,1.1,0.7,1.9v0.5c0.8-1,1.8-1.8,2.7-2.3
				c1-0.5,2.1-0.7,3.2-0.7c1.2,0,2.3,0.2,3.2,0.7c0.9,0.5,1.6,1.2,2.2,2.2c0.8-1,1.7-1.8,2.7-2.2c0.9-0.5,2-0.7,3.1-0.7
				c1.3,0,2.5,0.3,3.5,0.8c1,0.5,1.7,1.3,2.2,2.3c0.4,0.9,0.6,2.3,0.6,4.2v9.6c0,1-0.2,1.8-0.7,2.3c-0.5,0.5-1.1,0.8-1.8,0.8
				c-0.7,0-1.4-0.3-1.8-0.8c-0.5-0.5-0.7-1.3-0.7-2.3v-8.3c0-1.1,0-1.9-0.1-2.5c-0.1-0.6-0.3-1.2-0.7-1.6c-0.4-0.4-1-0.6-1.8-0.6
				c-0.6,0-1.3,0.2-1.8,0.6c-0.6,0.4-1,0.9-1.4,1.5C1101.2,1646.8,1101.1,1648.2,1101.1,1650.3z"/>
		</g>
		<g class="st4">
			<path class="st5" d="M865.1,1627.3c-0.1-0.3-0.2-0.6-0.3-0.9c1.7-0.2,2.8-2.1,1.9-3.6c-0.7-1.7-3.3-1.9-4.3-0.3
				c-1.1,1.3-0.2,3.5,1.4,3.9c0.1,0.3,0.2,0.7,0.3,1c-2.5,0.1-5,0.7-7.1,2.1c0.2,0.6,0.4,1.2,0.6,1.8c4.2-1.8,8.9-1.4,13.3-1
				c0.1-0.6,0.3-1.2,0.4-1.7C869.5,1627.6,867.3,1627.3,865.1,1627.3z"/>
			<path class="st5" d="M890,1634.1c-0.7,0.3-0.8,1.1-0.7,1.8c-0.7,0.7-0.4,1.8-0.5,2.7c-0.2,0.5-0.8,0.6-1.2,0.8
				c-0.6-0.9-1.2-1.7-2-2.5l0,0c-0.8-0.8-1.8-1.5-2.7-2.1c-0.8,0.8-1.6,1.6-2.3,2.5c1.5,1.6,2.8,3.4,4,5.2c0.8,1.4,1.5,2.9,2.1,4.4
				c1.2-0.6,2.5-1.3,3.7-2c-0.7-1.5-1.4-3-2.2-4.5c0.6-0.3,1.3-0.6,1.4-1.3c0.1-0.8-0.1-1.7,0.4-2.4c1,0.6,2.4-0.1,2.4-1.2
				C892.5,1634.3,891,1633.4,890,1634.1z"/>
			<path class="st5" d="M883.3,1643.1c-1.6-2.7-3.4-5.4-5.8-7.4c-2.8-2.4-6.3-4.1-10-4c-4.7-0.1-9.4,0.7-13.8,2.6
				c-4.1,1.8-7.6,5-9.4,9.1c-1.7,3.7-1.7,8-0.9,11.9c4.3,1.1,8.7,2,13.2,2.3c4.4,0.1,8.8,0.2,13.2-0.4c6-0.8,11.9-2.7,17.1-5.7
				C886.8,1651.4,886.1,1647.4,883.3,1643.1z M862.1,1648.4c-0.8,1.2-2,2.1-3.3,2.6c-2.5,0.9-5.6,0.3-7.4-1.7
				c-1.3-1.4-2-3.3-1.9-5.2c0.1-2.4,1.6-4.6,3.6-5.7c1.6-0.9,3.5-1,5.2-0.5c0.7,0.2,1.4,0.5,2,0.9c1.3,0.9,2.2,2.2,2.7,3.8
				C863.6,1644.6,863.2,1646.7,862.1,1648.4z M880.3,1644.1c-0.3,2-2.2,3.7-4.3,3.6c-1.2,0.1-2.4-0.5-3.2-1.3
				c-0.6-0.7-1.1-1.6-1.1-2.5c-0.3-2.1,1.2-4.2,3.2-4.7c0.9-0.2,1.8-0.1,2.7,0.1C879.4,1640,880.7,1642.2,880.3,1644.1z"/>
			<path class="st5" d="M844.4,1637.1c-1.8,1.1-3.2,2.6-4.4,4.2c-0.4-0.6-0.5-1.4-0.9-2c-0.3-0.3-0.7-0.2-1.1-0.2
				c-0.5,0-0.9-0.1-1.4-0.2c0.5-0.7,0.4-1.8-0.4-2.3c-0.8-0.6-2.1-0.1-2.4,0.9c-0.4,1.1,0.8,2.2,1.9,1.9c0.6,0.8,1.6,0.7,2.5,0.7
				c0.4,0.7,0.7,1.4,1.2,2.1c-0.9,1.9-1.5,3.9-1.5,6c1.2,0.5,2.4,1,3.6,1.5c0.1-1.3,0.2-2.6,0.4-3.9c0.4-2.8,2-5.3,4-7.3
				C845.4,1638,844.9,1637.6,844.4,1637.1z"/>
			<path class="st5" d="M872.6,1658.3c-4.5,1-9,1.2-13.6,1.1c-3.1-0.2-6.2-0.4-9.2-1.1c-2.1-0.4-4.2-1-6.3-1.6
				c0.3,2.7,1.4,5.2,3,7.4c1.8,2.6,4.3,4.9,7.3,5.9c2.4,0.6,5.2,1.4,10,1.4c4-0.1,8-0.6,11.5-2.1c2.3-1,4.4-2.3,6.2-4
				c1.6-1.5,2.8-3.4,3.7-5.4c0.8-1.9,1.6-5.3,1.5-7C882.4,1655.3,877.5,1657.5,872.6,1658.3z"/>
		</g>
	</g>
	<g>
		<g class="st6">
			<g>
				<path class="st7" d="M323.8,1060.6c3.2-16.2,19.2-29.4,35.7-29.4h1044.8c16.5,0,32.7,13.2,36.1,29.4l73.5,355.3
					c3.3,16.2-7.4,29.4-23.9,29.5l-1212,4.5c-16.5,0.1-27.4-13.1-24.3-29.3L323.8,1060.6z"/>
			</g>
			<g>
				<path class="st8" d="M323.8,1060.6c3.2-16.2,19.2-29.4,35.7-29.4h1044.8c16.5,0,32.7,13.2,36.1,29.4l73.5,355.3
					c3.3,16.2-7.4,29.4-23.9,29.5l-1212,4.5c-16.5,0.1-27.4-13.1-24.3-29.3L323.8,1060.6z"/>
			</g>
		</g>
		<g>
			<g>
				<path class="st9" d="M445.1,853.9l-13.2,3.9v47.9l903.4,3.9l19.8-5.9c0,0,4.1-13.7,2.5-18.6c-1.7-4.9-0.8-16.6-6.2-17.1
					c-5.4-0.5-25.3-3.5-25.3-3.5L445.1,853.9z"/>
				<rect x="473.6" y="707.8" class="st10" width="816.6" height="16.8"/>
				<path class="st10" d="M622.6,750c0.2-0.9,11.1-12.9,11.6-13.5c0.5-0.5,15.5,3.6,15.5,3.6l-2.8,21.1l-16,0.4L622.6,750z"/>
				<path class="st10" d="M1329.8,753.8c0,0-2.7-22.4,2.4-24.5c5.1-2.1,25-1.4,27.4-1.2c2.5,0.2,6.9,10,8.2,15.6
					c1.3,5.6,2,59.3,1.8,62.8c-0.2,3.5-4.2,15.4-6.9,20.3c-2.7,4.9-1.8,10.3-7.8,10.5c-6,0.2-18.5-8.4-17.4-18.4
					c1.1-10-2.4-39.5-7.4-42.7c-4.9-3.3-8.9-13.8-6-16.6C1327.1,756.9,1329.8,753.8,1329.8,753.8z"/>
				<rect x="483.9" y="724.9" class="st9" width="818.9" height="19.3"/>
				<rect x="1146.3" y="743.1" class="st10" width="158.3" height="19.1"/>
				<rect x="1139.7" y="665.6" class="st9" width="127.1" height="37.6"/>
				<rect x="1301.9" y="726.3" class="st9" width="21.6" height="38.1"/>
				<rect x="1301.3" y="724.9" class="st10" width="3.9" height="28.9"/>
				<rect x="1151.1" y="720.2" class="st7" width="148.8" height="4.6"/>
				<rect x="1151.4" y="702.9" class="st9" width="139.9" height="1.3"/>
				<rect x="1214.1" y="665.6" class="st10" width="4.9" height="38.8"/>
				<rect x="1204.3" y="665.6" class="st10" width="4.5" height="14"/>
				<rect x="1193.4" y="665.6" class="st10" width="4.5" height="14"/>
				<rect x="1179" y="665.6" class="st10" width="4.5" height="14"/>
				<rect x="1153.8" y="665.6" class="st10" width="4.5" height="14"/>
				<rect x="1165.6" y="665.6" class="st10" width="4.5" height="14"/>
				<rect x="509.3" y="663.6" class="st9" width="127.1" height="37.6"/>
				<path class="st11" d="M624.3,901.2l-81.9,4.1L460.4,939c0,0-30.2,72.5-30.2,75.6c0,3.1-46.8,214.5-46.8,214.5l19.5,97l64.4,22.5
					c0,0,871.1,7.2,885.8,3.1c14.6-4.1,46.8-7.1,49.8-26.6c2.9-19.4-2-104.2-10.7-119.5c-8.8-15.3-48.8-196.1-48.8-196.1l2.9-11.2
					c0,0-3.9-87.8-2.9-91.9c1-4.1-8.8-7.2-8.8-7.2L624.3,901.2z"/>
				<polygon class="st12" points="644.8,774.8 612.1,214.3 1164.5,196.4 1148.7,782.9 				"/>
				<polygon class="st7" points="509.2,699.9 508.8,702.1 635.8,702.5 635.5,700.3 				"/>
				<rect x="557.1" y="663.6" class="st10" width="4.9" height="38.8"/>
				<rect x="567.4" y="663.6" class="st10" width="4.5" height="14"/>
				<rect x="578.3" y="663.6" class="st10" width="4.5" height="14"/>
				<rect x="592.7" y="663.6" class="st10" width="4.5" height="14"/>
				<rect x="617.9" y="663.6" class="st10" width="4.5" height="14"/>
				<rect x="606.1" y="663.6" class="st10" width="4.5" height="14"/>
				<path class="st13" d="M437,985.9c0,0-57.5,259.1-40.4,276.7c17.2,17.7,624.7,11.4,691.3,15.2c66.6,3.8,282.6,12.6,282.6-21.5
					c0-34.1-32.3-267.9-37.3-275.5C1328.1,973.2,440,977,437,985.9z"/>
				<path class="st5" d="M431.7,859.4l3.4-125.6c0,0,10.3,3.6,32.6,5.4c22.3,1.8-3.4,3.6,47.1,3.6c50.6,0,95.1-0.9,107.1-0.9
					c12,0,11.1,17.1,19.7,18c8.6,0.9,247.7,1.8,274.3,0.9c26.6-0.9,227.1,0.9,232.3,0c5.1-0.9,8.6-13.5,29.1-12.6
					c20.6,0.9,127.7,3.6,134.6,7.2c6.9,3.6,13.7,12.6,16.3,21.5c2.6,9,12.8,27.8,5.1,34.1c-7.7,6.3-278.6,26-299.1,26
					c-20.6,0-438.9,24.2-438.9,24.2L431.7,859.4z"/>
				<path class="st5" d="M431.2,896.1l-2,87.8c0,0-55.6,232.9-59.5,242.1c-3.9,9.2-10.7,75.6-6.8,85.8c3.9,10.2,9.8,36.8,84.9,36.8
					c75.1,0-4.3,1.3-9.8-17.4c-6.8-23.5-12.7-24.5-3.9-28.6c8.8-4.1,29.3-10.2,48.8-9.2c19.5,1,840.9,9.2,871.1,2
					c30.2-7.2,50.7-8.2,45.9-46c-4.9-37.8-41-185.9-42-201.2c-1-15.3-1.9-28.6-3.9-38.8c-2-10.2-19.5-8.2-24.4-5.1
					c-4.9,3.1-3.9,33.7-2,46c2,12.3,6.8,52.1,11.7,67.4c4.9,15.3,17.6,105.2,21.5,111.3c3.9,6.1,20.5,35.8-38,37.8
					c-58.5,2-745.3-8.2-782.4-7.1c-37.1,1-120,3.1-130.7-8.2c-10.7-11.2-6.8-23.5-3.9-33.7c2.9-10.2,41.9-191,42.9-198.2
					c1-7.2,0-25.5,1-34.7c1-9.2-2-19.4,7.8-24.5c9.8-5.1,24.4,1,35.1-12.3c10.7-13.3,9.8-22.5,32.2-32.7
					c22.4-10.2,32.2-12.3,41.9-13.3c9.8-1-75.1,4.1-93.6,3.1C454.6,904.3,436,903.2,431.2,896.1z"/>
				<path class="st11" d="M448,860.3c0.9-2.7-3.4-49.4,16.3-53.9c19.7-4.5,185.1-1.8,231.4-2.7c46.3-0.9,436.3-6.3,462.9-8.1
					c26.6-1.8,132.9,12.6,150,9c17.1-3.6,26.6-4.5,18.9-18c-7.7-13.5-20.6-23.3-8.6-24.2c12-0.9,29.1,29.6,30.9,47.6
					c1.7,18,3.4,51.2,1.7,56.5C1349.7,872,448,860.3,448,860.3z"/>
				<polygon class="st10" points="387.2,714.9 421.5,714.9 422.3,808.2 418.9,820.8 389.7,822.6 381.2,801 381.2,739.1 386.3,734.6 
					386.3,717.6 				"/>
				<rect x="473.3" y="702.8" class="st7" width="163.8" height="4.6"/>
				<rect x="420.5" y="765.3" class="st10" width="16.9" height="23.4"/>
				<rect x="419.6" y="746.1" class="st7" width="17.8" height="19.2"/>
				<rect x="421.4" y="733.8" class="st10" width="13.8" height="12"/>
				<path class="st9" d="M431.3,736.1c0,0,0-3.8,4.6-4.3c4.6-0.6,31,1.7,31,1.7l2.5,8.3l-16.3,17.7c0,0-9.6-0.6-10.5,6.4
					c-1,7,0.8,8.3-4.2,9.4c-5,1.1-3.8-7.5-3.1-9.9c0.7-2.5,2-8.3-0.7-11.3c-2.7-3-1.3-7.1-4.2-7.5c-2.9-0.4-11.6,0.8-12.8,0.2
					c-1.2-0.6-5.2-2.1-1-2.6C420.8,743.4,431.5,739.5,431.3,736.1z"/>
				<rect x="419.6" y="755.5" class="st7" width="2.9" height="31.7"/>
				<path class="st10" d="M463.7,733.2c0,0-180-154.6-295.3-133.7c-115.4,20.9,0,41.9,41.5,53.2c41.5,11.3,224.6,53.2,216.9,80.5"/>
				<rect x="444.3" y="765.8" class="st10" width="891.7" height="3.3"/>
				<path class="st7" d="M1114.7,640.7v-7.9c0-3.4-2.6-6.1-5.9-6.1h-8c-3.2,0-5.9,2.7-5.9,6.1v7.9H688.8v-6.4c0-3.4-2.6-6.1-5.9-6.1
					h-8c-3.2,0-5.9,2.7-5.9,6.1v6.4l-38.8,0l0.5,3.3l38.3,0.6v9c0,3.4,2.6,6.1,5.9,6.1h8c3.2,0,5.9-2.7,5.9-6.1v-9H1095v7.5
					c0,3.4,2.6,6.1,5.9,6.1h8c3.2,0,5.9-2.7,5.9-6.1v-7.5l38.7,0.5l1.1-4.4L1114.7,640.7z"/>
				<rect x="643.9" y="759.9" class="st10" width="504.3" height="2.4"/>
				<rect x="1321.8" y="751.5" class="st9" width="9.4" height="12.4"/>
				<rect x="463.6" y="705.6" class="st10" width="3.9" height="28.9"/>
				<rect x="473.5" y="701.5" class="st9" width="163.3" height="1.3"/>
				<polygon class="st7" points="563,685.9 601.4,685.9 601.4,699.9 562.6,699.9 				"/>
				<rect x="571" y="624.9" class="st10" width="5.2" height="141.7"/>
				<rect x="571" y="624.9" class="st10" width="614.3" height="3.9"/>
				<rect x="1185.4" y="624.9" class="st10" width="3.7" height="141"/>
				<rect x="1183.2" y="628.4" class="st7" width="2.2" height="137.2"/>
				<rect x="576" y="628.8" class="st7" width="2.8" height="136.8"/>
				<path class="st10" d="M670.3,636.9c0,3.4-2.6,6.1-5.9,6.1h-8c-3.2,0-5.9-2.7-5.9-6.1v-19.3c0-3.4,2.6-6.1,5.9-6.1h8
					c3.2,0,5.9,2.7,5.9,6.1V636.9z"/>
				<path class="st7" d="M665.1,631.5c0,2.7-2.1,4.9-4.6,4.9c-2.6,0-4.6-2.2-4.6-4.9v-10.3c0-2.7,2.1-4.9,4.6-4.9
					c2.6,0,4.6,2.2,4.6,4.9V631.5z"/>
				<path class="st10" d="M1127.7,636.3c0,3.4-2.6,6.1-5.9,6.1h-8c-3.2,0-5.9-2.7-5.9-6.1V617c0-3.4,2.6-6.1,5.9-6.1h8
					c3.2,0,5.9,2.7,5.9,6.1V636.3z"/>
				<path class="st7" d="M1122.5,630.9c0,2.7-2.1,4.9-4.6,4.9c-2.6,0-4.6-2.2-4.6-4.9v-10.3c0-2.7,2.1-4.9,4.6-4.9
					c2.6,0,4.6,2.2,4.6,4.9V630.9z"/>
				<rect x="435.2" y="879.2" class="st7" width="914.9" height="8.7"/>
				<rect x="435.1" y="874.8" class="st10" width="914.3" height="4.4"/>
				<rect x="432.6" y="887.9" class="st10" width="914.3" height="4.4"/>
				<path class="st7" d="M462.9,862.6c0,0-25.4-3.5-28,0c-2.6,3.5-4.6,28.7-2.6,31.2c2.1,2.6,9.3,6.3,18.2,7.3
					c8.9,1,14.4,0.5,23-0.1c8.6-0.6,14.9-4,8.7-7.7c-6.2-3.7-16.1-7.4-14.5-13.8c1.6-6.4,1.3-8.3,5.3-10.2
					C476.9,867.3,466.7,862.5,462.9,862.6z"/>
				<path class="st7" d="M1341.4,879.2c0,0-2.9-6.4,0-7.1c2.9-0.7,6.9-4.2,9.4-1.4c2.5,2.9,5.9,8.3,5.1,15.3c-0.8,7-0.3,12.1-4,14.5
					c-3.8,2.3-6.6,5.5-9.1,1.2c-2.5-4.2-2.6-4.8-5.2-5.5c-2.6-0.7-2.4-4.4,1.6-6.3C1343,888,1342.8,881.1,1341.4,879.2z"/>
				<rect x="1082.8" y="907.5" class="st10" width="159.5" height="11.2"/>
				<rect x="802.2" y="906.7" class="st10" width="171.6" height="11.2"/>
				<rect x="455" y="906" class="st10" width="171.6" height="11.2"/>
				<rect x="584.3" y="913.5" class="st9" width="17.8" height="13.4"/>
				<rect x="580.7" y="911.2" class="st7" width="15.7" height="12.7"/>
				<rect x="932.5" y="915" class="st9" width="17.8" height="13.4"/>
				<rect x="929" y="912.7" class="st7" width="15.7" height="12.7"/>
				<rect x="1188.9" y="915" class="st9" width="17.8" height="13.4"/>
				<rect x="1185.3" y="912.7" class="st7" width="15.7" height="12.7"/>
				<path class="st7" d="M399.7,802.7c0,4.5-2,8.2-4.4,8.2l0,0c-2.5,0-4.4-3.7-4.4-8.2v-70.2c0-4.5,2-8.2,4.4-8.2l0,0
					c2.5,0,4.4,3.7,4.4,8.2V802.7z"/>
				<path class="st10" d="M534.7,662c0,0,0.7-25.8-19.8-14.3c-20.5,11.5-9.6,22.2-21.9,26.5c-12.3,4.3-13-3.3-14.7-21.3
					c-1.7-18.1-20.9-52.4-33.2-28.1c-12.3,24.3-2.1,37.2,9.6,37.9c11.6,0.7,21.2,10.7,15.7,22.2c-5.5,11.5,19,20.3,37.5,17"/>
				<path class="st7" d="M1343.5,734.3c0,0,17.8,2.9,17.1,23.6c-0.7,20.8-0.7,20.8-0.7,20.8S1381.1,724.3,1343.5,734.3z"/>
				<path class="st10" d="M1249.8,668.6c-0.2,0,30.8-31.7,36.3-14.5c5.5,17.2,9.7,22.6,19.9,10.2c10.2-12.4,40.9,42-33.6,43.5
					C1197.9,709.3,1292.9,664.5,1249.8,668.6z"/>
			</g>
			<g>
				<g>
					<g>
						<g>
							<ellipse class="st14" cx="531.7" cy="1026.9" rx="22.4" ry="25.6"/>
							<ellipse class="st15" cx="531.7" cy="1022.4" rx="22.4" ry="25.6"/>
						</g>
						<g>
							<ellipse class="st14" cx="594.7" cy="1026.9" rx="22.4" ry="25.6"/>
							<ellipse class="st15" cx="594.7" cy="1022.4" rx="22.4" ry="25.6"/>
						</g>
						<g>
							<ellipse class="st14" cx="659.1" cy="1026.9" rx="22.4" ry="25.6"/>
							<ellipse class="st15" cx="659.1" cy="1022.4" rx="22.4" ry="25.6"/>
						</g>
						<g>
							<ellipse class="st14" cx="722.2" cy="1026.9" rx="22.4" ry="25.6"/>
							<ellipse class="st15" cx="722.2" cy="1022.4" rx="22.4" ry="25.6"/>
						</g>
					</g>
					<g>
						<g>
							<ellipse class="st14" cx="783.8" cy="1026.9" rx="22.4" ry="25.6"/>
							<ellipse class="st15" cx="783.8" cy="1022.4" rx="22.4" ry="25.6"/>
						</g>
						<g>
							<ellipse class="st14" cx="846.8" cy="1026.9" rx="22.4" ry="25.6"/>
							<ellipse class="st15" cx="846.8" cy="1022.4" rx="22.4" ry="25.6"/>
						</g>
						<g>
							<ellipse class="st14" cx="911.2" cy="1026.9" rx="22.4" ry="25.6"/>
							<ellipse class="st15" cx="911.2" cy="1022.4" rx="22.4" ry="25.6"/>
						</g>
						<g>
							<ellipse class="st14" cx="974.2" cy="1026.9" rx="22.4" ry="25.6"/>
							<ellipse class="st15" cx="974.2" cy="1022.4" rx="22.4" ry="25.6"/>
						</g>
					</g>
					<g>
						<g>
							<ellipse class="st14" cx="1032.2" cy="1026.9" rx="22.4" ry="25.6"/>
							<ellipse class="st15" cx="1032.2" cy="1022.4" rx="22.4" ry="25.6"/>
						</g>
						<g>
							<ellipse class="st14" cx="1095.2" cy="1026.9" rx="22.4" ry="25.6"/>
							<ellipse class="st15" cx="1095.2" cy="1022.4" rx="22.4" ry="25.6"/>
						</g>
						<g>
							<ellipse class="st14" cx="1159.6" cy="1026.9" rx="22.4" ry="25.6"/>
							<ellipse class="st15" cx="1159.6" cy="1022.4" rx="22.4" ry="25.6"/>
						</g>
						<g>
							<ellipse class="st14" cx="1222.6" cy="1026.9" rx="22.4" ry="25.6"/>
							<ellipse class="st15" cx="1222.6" cy="1022.4" rx="22.4" ry="25.6"/>
						</g>
					</g>
				</g>
				<g>
					<g>
						<g>
							<ellipse class="st14" cx="528.6" cy="1218.2" rx="22.4" ry="25.6"/>
							<ellipse class="st15" cx="528.6" cy="1213.6" rx="22.4" ry="25.6"/>
						</g>
						<g>
							<ellipse class="st14" cx="591.6" cy="1218.2" rx="22.4" ry="25.6"/>
							<ellipse class="st15" cx="591.6" cy="1213.6" rx="22.4" ry="25.6"/>
						</g>
						<g>
							<ellipse class="st14" cx="656.1" cy="1218.2" rx="22.4" ry="25.6"/>
							<ellipse class="st15" cx="656.1" cy="1213.6" rx="22.4" ry="25.6"/>
						</g>
						<g>
							<ellipse class="st14" cx="719.1" cy="1218.2" rx="22.4" ry="25.6"/>
							<ellipse class="st15" cx="719.1" cy="1213.6" rx="22.4" ry="25.6"/>
						</g>
					</g>
					<g>
						<g>
							<ellipse class="st14" cx="780.7" cy="1218.2" rx="22.4" ry="25.6"/>
							<ellipse class="st15" cx="780.7" cy="1213.6" rx="22.4" ry="25.6"/>
						</g>
						<g>
							<ellipse class="st14" cx="843.7" cy="1218.2" rx="22.4" ry="25.6"/>
							<ellipse class="st15" cx="843.7" cy="1213.6" rx="22.4" ry="25.6"/>
						</g>
						<g>
							<ellipse class="st14" cx="908.1" cy="1218.2" rx="22.4" ry="25.6"/>
							<ellipse class="st15" cx="908.1" cy="1213.6" rx="22.4" ry="25.6"/>
						</g>
						<g>
							<ellipse class="st14" cx="971.2" cy="1218.2" rx="22.4" ry="25.6"/>
							<ellipse class="st15" cx="971.2" cy="1213.6" rx="22.4" ry="25.6"/>
						</g>
					</g>
					<g>
						<g>
							<ellipse class="st14" cx="1029.1" cy="1218.2" rx="22.4" ry="25.6"/>
							<ellipse class="st15" cx="1029.1" cy="1213.6" rx="22.4" ry="25.6"/>
						</g>
						<g>
							<ellipse class="st14" cx="1092.1" cy="1218.2" rx="22.4" ry="25.6"/>
							<ellipse class="st15" cx="1092.1" cy="1213.6" rx="22.4" ry="25.6"/>
						</g>
						<g>
							<ellipse class="st14" cx="1156.5" cy="1218.2" rx="22.4" ry="25.6"/>
							<ellipse class="st15" cx="1156.5" cy="1213.6" rx="22.4" ry="25.6"/>
						</g>
						<g>
							<ellipse class="st14" cx="1219.5" cy="1218.2" rx="22.4" ry="25.6"/>
							<ellipse class="st15" cx="1219.5" cy="1213.6" rx="22.4" ry="25.6"/>
						</g>
					</g>
				</g>
				<g>
					<g>
						<g>
							<ellipse class="st14" cx="493.9" cy="1095.1" rx="22.4" ry="25.6"/>
							<ellipse class="st15" cx="493.9" cy="1090.5" rx="22.4" ry="25.6"/>
						</g>
						<g>
							<ellipse class="st14" cx="556.9" cy="1095.1" rx="22.4" ry="25.6"/>
							<ellipse class="st15" cx="556.9" cy="1090.5" rx="22.4" ry="25.6"/>
						</g>
						<g>
							<ellipse class="st14" cx="621.3" cy="1095.1" rx="22.4" ry="25.6"/>
							<ellipse class="st15" cx="621.3" cy="1090.5" rx="22.4" ry="25.6"/>
						</g>
						<g>
							<ellipse class="st14" cx="684.3" cy="1095.1" rx="22.4" ry="25.6"/>
							<ellipse class="st15" cx="684.3" cy="1090.5" rx="22.4" ry="25.6"/>
						</g>
					</g>
					<g>
						<g>
							<ellipse class="st14" cx="746" cy="1095.1" rx="22.4" ry="25.6"/>
							<ellipse class="st15" cx="746" cy="1090.5" rx="22.4" ry="25.6"/>
						</g>
						<g>
							<ellipse class="st14" cx="809" cy="1095.1" rx="22.4" ry="25.6"/>
							<ellipse class="st15" cx="809" cy="1090.5" rx="22.4" ry="25.6"/>
						</g>
						<g>
							<ellipse class="st14" cx="873.4" cy="1095.1" rx="22.4" ry="25.6"/>
							<ellipse class="st15" cx="873.4" cy="1090.5" rx="22.4" ry="25.6"/>
						</g>
						<g>
							<ellipse class="st14" cx="936.4" cy="1095.1" rx="22.4" ry="25.6"/>
							<ellipse class="st15" cx="936.4" cy="1090.5" rx="22.4" ry="25.6"/>
						</g>
					</g>
					<g>
						<g>
							<ellipse class="st14" cx="994.3" cy="1095.1" rx="22.4" ry="25.6"/>
							<ellipse class="st15" cx="994.3" cy="1090.5" rx="22.4" ry="25.6"/>
						</g>
						<g>
							<ellipse class="st14" cx="1057.4" cy="1095.1" rx="22.4" ry="25.6"/>
							<ellipse class="st15" cx="1057.4" cy="1090.5" rx="22.4" ry="25.6"/>
						</g>
						<g>
							<ellipse class="st14" cx="1121.8" cy="1095.1" rx="22.4" ry="25.6"/>
							<ellipse class="st15" cx="1121.8" cy="1090.5" rx="22.4" ry="25.6"/>
						</g>
						<g>
							<ellipse class="st14" cx="1184.8" cy="1095.1" rx="22.4" ry="25.6"/>
							<ellipse class="st15" cx="1184.8" cy="1090.5" rx="22.4" ry="25.6"/>
						</g>
						<g>
							<ellipse class="st14" cx="1243.6" cy="1095.1" rx="22.4" ry="25.6"/>
							<ellipse class="st15" cx="1243.6" cy="1090.5" rx="22.4" ry="25.6"/>
						</g>
					</g>
				</g>
				<g>
					<g>
						<g>
							<ellipse class="st14" cx="493.9" cy="1156.4" rx="22.4" ry="25.6"/>
							<ellipse class="st15" cx="493.9" cy="1151.8" rx="22.4" ry="25.6"/>
						</g>
						<g>
							<ellipse class="st14" cx="556.9" cy="1156.4" rx="22.4" ry="25.6"/>
							<ellipse class="st15" cx="556.9" cy="1151.8" rx="22.4" ry="25.6"/>
						</g>
						<g>
							<ellipse class="st14" cx="621.3" cy="1156.4" rx="22.4" ry="25.6"/>
							<ellipse class="st15" cx="621.3" cy="1151.8" rx="22.4" ry="25.6"/>
						</g>
						<g>
							<ellipse class="st14" cx="684.3" cy="1156.4" rx="22.4" ry="25.6"/>
							<ellipse class="st15" cx="684.3" cy="1151.8" rx="22.4" ry="25.6"/>
						</g>
					</g>
					<g>
						<g>
							<ellipse class="st14" cx="746" cy="1156.4" rx="22.4" ry="25.6"/>
							<ellipse class="st15" cx="746" cy="1151.8" rx="22.4" ry="25.6"/>
						</g>
						<g>
							<ellipse class="st14" cx="809" cy="1156.4" rx="22.4" ry="25.6"/>
							<ellipse class="st15" cx="809" cy="1151.8" rx="22.4" ry="25.6"/>
						</g>
						<g>
							<ellipse class="st14" cx="873.4" cy="1156.4" rx="22.4" ry="25.6"/>
							<ellipse class="st15" cx="873.4" cy="1151.8" rx="22.4" ry="25.6"/>
						</g>
						<g>
							<ellipse class="st14" cx="936.4" cy="1156.4" rx="22.4" ry="25.6"/>
							<ellipse class="st15" cx="936.4" cy="1151.8" rx="22.4" ry="25.6"/>
						</g>
					</g>
					<g>
						<g>
							<ellipse class="st14" cx="994.3" cy="1156.4" rx="22.4" ry="25.6"/>
							<ellipse class="st15" cx="994.3" cy="1151.8" rx="22.4" ry="25.6"/>
						</g>
						<g>
							<ellipse class="st14" cx="1057.4" cy="1156.4" rx="22.4" ry="25.6"/>
							<ellipse class="st15" cx="1057.4" cy="1151.8" rx="22.4" ry="25.6"/>
						</g>
						<g>
							<ellipse class="st14" cx="1121.8" cy="1156.4" rx="22.4" ry="25.6"/>
							<ellipse class="st15" cx="1121.8" cy="1151.8" rx="22.4" ry="25.6"/>
						</g>
						<g>
							<ellipse class="st14" cx="1184.8" cy="1156.4" rx="22.4" ry="25.6"/>
							<ellipse class="st15" cx="1184.8" cy="1151.8" rx="22.4" ry="25.6"/>
						</g>
						<g>
							<ellipse class="st14" cx="1243.6" cy="1156.4" rx="22.4" ry="25.6"/>
							<ellipse class="st15" cx="1243.6" cy="1151.8" rx="22.4" ry="25.6"/>
						</g>
					</g>
				</g>
			</g>
			<g>
				<path class="st14" d="M1341.4,1227.4c0.7,7.1-9.5,7-16.2,7.7l0,0c-6.8,0.7-12.8-4.5-13.4-11.6l-12.6-134.7
					c-0.7-7.1,4.3-13.4,11.1-14.1l0,0c6.8-0.7,12.8,4.5,13.4,11.6L1341.4,1227.4z"/>
				<path class="st15" d="M1339.2,1221.9c0.7,7.1-9.5,7-16.2,7.7l0,0c-6.8,0.7-12.8-4.5-13.4-11.6l-12.6-134.7
					c-0.7-7.1,4.3-13.4,11-14.1l0,0c6.8-0.7,12.8,4.5,13.4,11.6L1339.2,1221.9z"/>
			</g>
		</g>
	</g>
</g>
</svg>
